#N canvas 267 47 965 660 10;
#X obj -596 -303 mtof;
#X obj -596 -245 phasor~;
#X obj -535 -150 lop~;
#X obj -505 4 *~;
#X obj -505 99 dac~;
#X obj -520 -120 r banger1;
#X obj -535 -52 *~;
#X text -512 -321 OSC1;
#X obj -505 64 *~;
#X obj -596 -331 r note1;
#X obj -482 -51 r tremolo1;
#X obj -482 -22 osc~;
#N canvas 0 22 450 300 enveloppe~ 0;
#X obj -453 227 line~;
#X obj -247 152 delay;
#X obj -453 169 pack 0.5 float;
#X obj -247 183 pack 0 float;
#X obj -453 54 t b b b b;
#X obj -453 26 inlet;
#X obj -453 255 outlet~;
#X text -282 3 Audio Envelope;
#X obj -372 140 r parmAttack;
#X obj -220 122 r parmAttack;
#X obj -178 155 r parmRelease;
#X connect 0 0 6 0;
#X connect 1 0 3 0;
#X connect 2 0 0 0;
#X connect 3 0 0 0;
#X connect 4 0 2 0;
#X connect 4 2 1 0;
#X connect 5 0 4 0;
#X connect 8 0 2 1;
#X connect 9 0 1 1;
#X connect 10 0 3 1;
#X restore -520 -89 pd enveloppe~;
#N canvas 75 366 450 300 enveloppe 0;
#X obj -248 132 delay;
#X obj -453 26 inlet;
#X obj -453 265 outlet;
#X obj -453 236 line;
#X obj -384 130 r attack1;
#X obj -221 104 r attack1;
#X obj -161 104 r release1;
#X obj -453 54 t b b;
#X text -302 6 Filter Envelope;
#X obj -248 158 pack 0 float;
#X obj -453 169 pack 1400 \$1;
#X connect 0 0 9 0;
#X connect 1 0 7 0;
#X connect 3 0 2 0;
#X connect 4 0 10 1;
#X connect 5 0 0 1;
#X connect 6 0 9 1;
#X connect 7 0 10 0;
#X connect 7 1 0 0;
#X connect 9 0 3 0;
#X connect 10 0 3 0;
#X restore -514 -181 pd enveloppe;
#X obj -514 -214 r banger1;
#X obj -356 -528 loadbang;
#X obj -593 -430 s parmAttack;
#X obj -506 -430 s parmRelease;
#X obj 34 -432 s banger1;
#X obj 98 -523 loadbang;
#X msg -414 -460 0.5;
#X obj -414 -430 s parmVolume;
#X obj -458 29 r parmVolume;
#X obj -294 -301 mtof;
#X obj -294 -245 phasor~;
#X obj -233 -150 lop~;
#X obj -203 4 *~;
#X obj -203 99 dac~;
#X obj -233 -52 *~;
#X obj -203 64 *~;
#X obj -180 -22 osc~;
#N canvas 0 22 450 300 enveloppe~ 0;
#X obj -453 227 line~;
#X obj -247 152 delay;
#X obj -453 169 pack 0.5 float;
#X obj -247 183 pack 0 float;
#X obj -453 54 t b b b b;
#X obj -453 26 inlet;
#X obj -453 255 outlet~;
#X text -282 3 Audio Envelope;
#X obj -372 140 r parmAttack;
#X obj -220 122 r parmAttack;
#X obj -178 155 r parmRelease;
#X connect 0 0 6 0;
#X connect 1 0 3 0;
#X connect 2 0 0 0;
#X connect 3 0 0 0;
#X connect 4 0 2 0;
#X connect 4 2 1 0;
#X connect 5 0 4 0;
#X connect 8 0 2 1;
#X connect 9 0 1 1;
#X connect 10 0 3 1;
#X restore -218 -89 pd enveloppe~;
#N canvas 75 366 450 300 enveloppe 0;
#X obj -248 132 delay;
#X obj -453 26 inlet;
#X obj -453 265 outlet;
#X obj -453 236 line;
#X obj -453 54 t b b;
#X text -302 6 Filter Envelope;
#X obj -221 104 r attack2;
#X obj -161 104 r release2;
#X obj -384 130 r attack2;
#X obj -248 158 pack 0 float;
#X obj -453 169 pack 1400 \$1;
#X connect 0 0 9 0;
#X connect 1 0 4 0;
#X connect 3 0 2 0;
#X connect 4 0 10 0;
#X connect 4 1 0 0;
#X connect 6 0 0 1;
#X connect 7 0 9 1;
#X connect 8 0 10 1;
#X connect 9 0 3 0;
#X connect 10 0 3 0;
#X restore -212 -181 pd enveloppe;
#X obj -156 29 r parmVolume;
#X obj 16 -300 mtof;
#X obj 16 -245 phasor~;
#X obj 77 -150 lop~;
#X obj 107 4 *~;
#X obj 107 99 dac~;
#X obj 77 -52 *~;
#X obj 107 64 *~;
#X obj 130 -22 osc~;
#N canvas 0 22 450 300 enveloppe~ 0;
#X obj -453 227 line~;
#X obj -247 152 delay;
#X obj -453 169 pack 0.5 float;
#X obj -247 183 pack 0 float;
#X obj -453 54 t b b b b;
#X obj -453 26 inlet;
#X obj -453 255 outlet~;
#X text -282 3 Audio Envelope;
#X obj -372 140 r parmAttack;
#X obj -220 122 r parmAttack;
#X obj -178 155 r parmRelease;
#X connect 0 0 6 0;
#X connect 1 0 3 0;
#X connect 2 0 0 0;
#X connect 3 0 0 0;
#X connect 4 0 2 0;
#X connect 4 2 1 0;
#X connect 5 0 4 0;
#X connect 8 0 2 1;
#X connect 9 0 1 1;
#X connect 10 0 3 1;
#X restore 92 -89 pd enveloppe~;
#N canvas 75 366 450 300 enveloppe 0;
#X obj -248 132 delay;
#X obj -453 26 inlet;
#X obj -453 265 outlet;
#X obj -453 236 line;
#X obj -453 54 t b b;
#X text -302 6 Filter Envelope;
#X obj -221 104 r attack3;
#X obj -161 104 r release3;
#X obj -384 130 r attack3;
#X obj -248 158 pack 0 float;
#X obj -453 169 pack 1400 \$1;
#X connect 0 0 9 0;
#X connect 1 0 4 0;
#X connect 3 0 2 0;
#X connect 4 0 10 0;
#X connect 4 1 0 0;
#X connect 6 0 0 1;
#X connect 7 0 9 1;
#X connect 8 0 10 1;
#X connect 9 0 3 0;
#X connect 10 0 3 0;
#X restore 98 -181 pd enveloppe;
#X obj 154 29 r parmVolume;
#X obj 346 -300 mtof;
#X obj 346 -245 phasor~;
#X obj 346 -218 *~ 2;
#X obj 346 -193 -~ 1;
#X obj 407 -150 lop~;
#X obj 437 4 *~;
#X obj 437 99 dac~;
#X obj 407 -52 *~;
#X obj 437 64 *~;
#X obj 460 -22 osc~;
#N canvas 0 22 450 300 enveloppe~ 0;
#X obj -453 227 line~;
#X obj -247 152 delay;
#X obj -453 169 pack 0.5 float;
#X obj -247 183 pack 0 float;
#X obj -453 54 t b b b b;
#X obj -453 26 inlet;
#X obj -453 255 outlet~;
#X text -282 3 Audio Envelope;
#X obj -372 140 r parmAttack;
#X obj -220 122 r parmAttack;
#X obj -178 155 r parmRelease;
#X connect 0 0 6 0;
#X connect 1 0 3 0;
#X connect 2 0 0 0;
#X connect 3 0 0 0;
#X connect 4 0 2 0;
#X connect 4 2 1 0;
#X connect 5 0 4 0;
#X connect 8 0 2 1;
#X connect 9 0 1 1;
#X connect 10 0 3 1;
#X restore 422 -89 pd enveloppe~;
#N canvas 75 367 450 300 enveloppe 0;
#X obj -248 132 delay;
#X obj -453 26 inlet;
#X obj -453 265 outlet;
#X obj -453 236 line;
#X obj -453 54 t b b;
#X text -302 6 Filter Envelope;
#X obj -221 104 r attack4;
#X obj -161 104 r release4;
#X obj -384 130 r attack4;
#X obj -248 158 pack 0 float;
#X obj -453 168 pack 1400 \$1;
#X connect 0 0 9 0;
#X connect 1 0 4 0;
#X connect 3 0 2 0;
#X connect 4 0 10 0;
#X connect 4 1 0 0;
#X connect 6 0 0 1;
#X connect 7 0 9 1;
#X connect 8 0 10 1;
#X connect 9 0 3 0;
#X connect 10 0 3 0;
#X restore 428 -181 pd enveloppe;
#X obj 484 29 r parmVolume;
#X text -210 -321 OSC2;
#X text 100 -321 OSC3;
#X text 430 -321 OSC4;
#X obj -294 -329 r note2;
#X obj 16 -328 r note3;
#X obj 346 -328 r note4;
#X obj -212 -214 r banger2;
#X obj -218 -120 r banger2;
#X obj 98 -214 r banger3;
#X obj 92 -120 r banger3;
#X obj -180 -51 r tremolo2;
#X obj 130 -51 r tremolo3;
#X obj 428 -214 r banger4;
#X obj 422 -120 r banger4;
#X obj 460 -51 r tremolo4;
#X obj 105 -432 s banger2;
#X obj 174 -432 s banger3;
#X obj 244 -432 s banger4;
#X msg -593 -462 50;
#X obj -356 -501 t b b b b b;
#X obj -596 -218 *~ 2;
#X obj -596 -193 -~ 1;
#X obj -294 -193 -~ 1;
#X obj 16 -218 *~ 2;
#X obj 16 -193 -~ 1;
#X obj -294 -218 *~ 2;
#X obj 696 -298 mtof;
#X obj 696 -243 phasor~;
#X obj 696 -216 cos~;
#X obj 696 -191 +~ 1;
#X obj 757 -150 lop~;
#X obj 787 4 *~;
#X obj 787 99 dac~;
#X obj 757 -52 *~;
#X obj 787 64 *~;
#X obj 810 -22 osc~;
#N canvas 0 22 450 300 enveloppe~ 0;
#X obj -453 227 line~;
#X obj -247 152 delay;
#X obj -453 169 pack 0.5 float;
#X obj -247 183 pack 0 float;
#X obj -453 54 t b b b b;
#X obj -453 26 inlet;
#X obj -453 255 outlet~;
#X text -282 3 Audio Envelope;
#X obj -372 140 r parmAttack;
#X obj -220 122 r parmAttack;
#X obj -178 155 r parmRelease;
#X connect 0 0 6 0;
#X connect 1 0 3 0;
#X connect 2 0 0 0;
#X connect 3 0 0 0;
#X connect 4 0 2 0;
#X connect 4 2 1 0;
#X connect 5 0 4 0;
#X connect 8 0 2 1;
#X connect 9 0 1 1;
#X connect 10 0 3 1;
#X restore 772 -89 pd enveloppe~;
#N canvas 75 366 450 300 enveloppe 0;
#X obj -248 132 delay;
#X obj -453 26 inlet;
#X obj -453 265 outlet;
#X obj -453 236 line;
#X obj -453 169 pack 5000 \$1;
#X obj -453 54 t b b;
#X text -302 6 Filter Envelope;
#X obj -248 158 pack 0 float;
#X obj -221 104 r attack;
#X obj -161 104 r release;
#X obj -384 130 r attack;
#X connect 0 0 7 0;
#X connect 1 0 5 0;
#X connect 3 0 2 0;
#X connect 4 0 3 0;
#X connect 5 0 4 0;
#X connect 5 1 0 0;
#X connect 7 0 3 0;
#X connect 8 0 0 1;
#X connect 9 0 7 1;
#X connect 10 0 4 1;
#X restore 778 -181 pd enveloppe;
#X obj 696 -328 r note;
#X obj 778 -214 r banger;
#X obj 772 -120 r banger;
#X obj 98 -494 t b b b b b;
#X obj 314 -432 s banger;
#X obj 810 -51 r tremolo;
#X obj 828 29 r parmVolume;
#X text 770 -321 OSC 5;
#X msg -327 -459 0.5;
#X obj -223 -430 s parmVibDepth;
#N canvas 541 216 450 300 vibrato 0;
#X obj -275 -167 *~ 0.3;
#X obj -275 -129 *~;
#X obj -275 -91 +~;
#X obj -74 -226 inlet;
#X obj -275 -223 r parmVibRate;
#X obj -275 -194 osc~;
#X obj -242 -194 r parmVibDepth;
#X obj -275 -26 outlet~;
#X obj -265 -55 +~;
#X connect 0 0 1 0;
#X connect 1 0 2 0;
#X connect 2 0 8 0;
#X connect 3 0 1 1;
#X connect 3 0 2 1;
#X connect 3 0 8 1;
#X connect 4 0 5 0;
#X connect 5 0 0 0;
#X connect 6 0 0 1;
#X connect 8 0 7 0;
#X restore -596 -269 pd vibrato;
#X obj -327 -430 s parmVibRate;
#X msg -223 -459 0.02;
#N canvas 541 216 450 300 vibrato 0;
#X obj -275 -167 *~ 0.3;
#X obj -275 -129 *~;
#X obj -275 -91 +~;
#X obj -74 -226 inlet;
#X obj -275 -223 r parmVibRate;
#X obj -275 -194 osc~;
#X obj -242 -194 r parmVibDepth;
#X obj -275 -26 outlet~;
#X obj -265 -55 +~;
#X connect 0 0 1 0;
#X connect 1 0 2 0;
#X connect 2 0 8 0;
#X connect 3 0 1 1;
#X connect 3 0 2 1;
#X connect 3 0 8 1;
#X connect 4 0 5 0;
#X connect 5 0 0 0;
#X connect 6 0 0 1;
#X connect 8 0 7 0;
#X restore -294 -269 pd vibrato;
#N canvas 541 216 450 300 vibrato 0;
#X obj -275 -167 *~ 0.3;
#X obj -275 -129 *~;
#X obj -275 -91 +~;
#X obj -74 -226 inlet;
#X obj -275 -223 r parmVibRate;
#X obj -275 -194 osc~;
#X obj -242 -194 r parmVibDepth;
#X obj -275 -26 outlet~;
#X obj -265 -55 +~;
#X connect 0 0 1 0;
#X connect 1 0 2 0;
#X connect 2 0 8 0;
#X connect 3 0 1 1;
#X connect 3 0 2 1;
#X connect 3 0 8 1;
#X connect 4 0 5 0;
#X connect 5 0 0 0;
#X connect 6 0 0 1;
#X connect 8 0 7 0;
#X restore 16 -269 pd vibrato;
#N canvas 541 216 450 300 vibrato 0;
#X obj -275 -167 *~ 0.3;
#X obj -275 -129 *~;
#X obj -275 -91 +~;
#X obj -74 -226 inlet;
#X obj -275 -223 r parmVibRate;
#X obj -275 -194 osc~;
#X obj -242 -194 r parmVibDepth;
#X obj -275 -26 outlet~;
#X obj -265 -55 +~;
#X connect 0 0 1 0;
#X connect 1 0 2 0;
#X connect 2 0 8 0;
#X connect 3 0 1 1;
#X connect 3 0 2 1;
#X connect 3 0 8 1;
#X connect 4 0 5 0;
#X connect 5 0 0 0;
#X connect 6 0 0 1;
#X connect 8 0 7 0;
#X restore 346 -269 pd vibrato;
#N canvas 541 216 450 300 vibrato 0;
#X obj -275 -167 *~ 0.3;
#X obj -275 -129 *~;
#X obj -275 -91 +~;
#X obj -74 -226 inlet;
#X obj -275 -223 r parmVibRate;
#X obj -275 -194 osc~;
#X obj -242 -194 r parmVibDepth;
#X obj -275 -26 outlet~;
#X obj -265 -55 +~;
#X connect 0 0 1 0;
#X connect 1 0 2 0;
#X connect 2 0 8 0;
#X connect 3 0 1 1;
#X connect 3 0 2 1;
#X connect 3 0 8 1;
#X connect 4 0 5 0;
#X connect 5 0 0 0;
#X connect 6 0 0 1;
#X connect 8 0 7 0;
#X restore 696 -269 pd vibrato;
#X text -362 -551 PARAMETRES;
#X text 81 -547 INITIALISATION;
#X msg -506 -462 2000;
#X connect 0 0 106 0;
#X connect 1 0 78 0;
#X connect 2 0 6 0;
#X connect 3 0 8 0;
#X connect 5 0 12 0;
#X connect 6 0 3 0;
#X connect 8 0 4 0;
#X connect 8 0 4 1;
#X connect 9 0 0 0;
#X connect 10 0 11 0;
#X connect 11 0 3 1;
#X connect 12 0 6 1;
#X connect 13 0 2 1;
#X connect 14 0 13 0;
#X connect 15 0 77 0;
#X connect 19 0 99 0;
#X connect 20 0 21 0;
#X connect 22 0 8 1;
#X connect 23 0 109 0;
#X connect 24 0 83 0;
#X connect 25 0 28 0;
#X connect 26 0 29 0;
#X connect 28 0 26 0;
#X connect 29 0 27 0;
#X connect 29 0 27 1;
#X connect 30 0 26 1;
#X connect 31 0 28 1;
#X connect 32 0 25 1;
#X connect 33 0 29 1;
#X connect 34 0 110 0;
#X connect 35 0 81 0;
#X connect 36 0 39 0;
#X connect 37 0 40 0;
#X connect 39 0 37 0;
#X connect 40 0 38 0;
#X connect 40 0 38 1;
#X connect 41 0 37 1;
#X connect 42 0 39 1;
#X connect 43 0 36 1;
#X connect 44 0 40 1;
#X connect 45 0 111 0;
#X connect 46 0 47 0;
#X connect 47 0 48 0;
#X connect 48 0 49 0;
#X connect 49 0 52 0;
#X connect 50 0 53 0;
#X connect 52 0 50 0;
#X connect 53 0 51 0;
#X connect 53 0 51 1;
#X connect 54 0 50 1;
#X connect 55 0 52 1;
#X connect 56 0 49 1;
#X connect 57 0 53 1;
#X connect 61 0 23 0;
#X connect 62 0 34 0;
#X connect 63 0 45 0;
#X connect 64 0 32 0;
#X connect 65 0 31 0;
#X connect 66 0 43 0;
#X connect 67 0 42 0;
#X connect 68 0 30 0;
#X connect 69 0 41 0;
#X connect 70 0 56 0;
#X connect 71 0 55 0;
#X connect 72 0 54 0;
#X connect 76 0 16 0;
#X connect 77 0 76 0;
#X connect 77 1 115 0;
#X connect 77 2 20 0;
#X connect 77 3 104 0;
#X connect 77 4 108 0;
#X connect 78 0 79 0;
#X connect 79 0 2 0;
#X connect 80 0 25 0;
#X connect 81 0 82 0;
#X connect 82 0 36 0;
#X connect 83 0 80 0;
#X connect 84 0 112 0;
#X connect 85 0 86 0;
#X connect 86 0 87 0;
#X connect 87 0 88 0;
#X connect 88 0 91 0;
#X connect 89 0 92 0;
#X connect 91 0 89 0;
#X connect 92 0 90 0;
#X connect 92 0 90 1;
#X connect 93 0 89 1;
#X connect 94 0 91 1;
#X connect 95 0 88 1;
#X connect 96 0 84 0;
#X connect 97 0 95 0;
#X connect 98 0 94 0;
#X connect 99 0 18 0;
#X connect 99 1 73 0;
#X connect 99 2 74 0;
#X connect 99 3 75 0;
#X connect 99 4 100 0;
#X connect 101 0 93 0;
#X connect 102 0 92 1;
#X connect 104 0 107 0;
#X connect 106 0 1 0;
#X connect 108 0 105 0;
#X connect 109 0 24 0;
#X connect 110 0 35 0;
#X connect 111 0 46 0;
#X connect 112 0 85 0;
#X connect 115 0 17 0;
